<svg width="1673" height="1861" viewBox="0 0 1673 1861" fill="none" xmlns="http://www.w3.org/2000/svg">
<path fill-rule="evenodd" clip-rule="evenodd" d="M890.099 200.476C851.978 200.978 813.861 200.682 775.75 199.591C755.983 166.556 736.835 133.167 718.305 99.4256C736.162 66.9756 754.339 34.6793 772.833 2.5381C813.077 -0.733554 853.179 -0.842339 893.135 2.21176C911.883 34.8062 930.634 67.3987 949.383 99.9931C929.594 133.554 909.833 167.048 890.099 200.476ZM714.088 301.275C673.805 302.16 633.703 301.474 593.78 299.212C575.316 266.782 556.569 234.587 537.536 202.626C556.189 170.172 575.159 137.874 594.447 105.733C633.324 102.843 672.231 102.338 711.172 104.222C731.834 136.338 750.981 169.328 768.613 203.194C749.815 235.544 731.641 268.238 714.088 301.275ZM1071.43 302.694C1032.49 303.595 993.575 302.903 954.691 300.622C935.826 267.398 916.679 234.405 897.249 201.651C916.656 169.688 935.626 137.391 954.159 104.758C993.036 101.867 1031.94 101.362 1070.88 103.247C1091.25 135.089 1110.39 167.682 1128.32 201.024C1109.65 235.134 1090.68 269.025 1071.43 302.694ZM1252.75 404.913C1213.02 405.816 1173.31 405.126 1133.64 402.847C1115.88 369.851 1097.53 337.258 1078.58 305.063C1096.03 271.103 1114.99 238.009 1135.48 205.782C1174.41 203.686 1213.32 203.979 1252.21 206.658C1271.36 239.252 1290.51 271.843 1309.65 304.437C1289.6 337.399 1270.63 370.891 1252.75 404.913ZM893.038 405.888C854.121 406.393 815.212 406.099 776.307 405.011C758.659 375.003 740.712 345.194 722.465 315.584C719.353 311.138 718.544 306.362 720.043 301.259C738.918 269.955 757.495 238.454 775.769 206.757C814.699 204.662 853.608 204.955 892.501 207.635C912.246 239.833 931.393 272.426 949.94 305.412C929.888 338.375 910.92 371.867 893.038 405.888ZM533.325 406.864C494.408 407.369 455.498 407.075 416.594 405.986C396.827 372.951 377.679 339.562 359.149 305.821C376.898 272.382 395.867 239.685 416.056 207.733C454.985 205.638 493.895 205.931 532.787 208.611C551.933 241.204 571.08 273.795 590.226 306.388C569.995 339.236 551.027 372.728 533.325 406.864ZM354.938 510.058C315.205 510.962 275.492 510.271 235.822 507.993C216.415 475.957 198.079 443.362 180.765 410.209C197.307 378.422 215.089 347.322 234.112 316.909C235.249 314.641 235.648 312.251 235.284 309.74C274.208 309.235 313.111 309.528 352.015 310.617C371.5 343.501 390.648 376.491 409.457 409.589C391.267 443.119 373.093 476.609 354.938 510.058ZM1071.98 508.113C1032.5 508.997 993.187 508.308 954.057 506.044C935.61 473.652 916.862 441.457 897.813 409.458C917.081 376.558 936.05 343.465 954.717 310.177C993.595 307.286 1032.5 306.782 1071.44 308.666C1089.89 340.262 1108.63 371.662 1127.68 402.863C1129.28 406.043 1129.29 409.23 1127.71 412.418C1108.59 444.049 1090.02 475.947 1071.98 508.113ZM1434.08 507.131C1394.35 508.034 1354.64 507.344 1314.96 505.065C1295.22 472.868 1276.07 440.275 1257.52 407.288C1277.09 374.984 1296.06 342.288 1314.43 309.201C1353.88 305.931 1393.19 305.825 1432.35 308.881C1451.14 341.564 1469.89 374.158 1488.6 406.661C1470.41 440.192 1452.23 473.682 1434.08 507.131ZM714.652 509.083C674.919 509.986 635.212 509.296 595.535 507.017C575.79 474.82 556.644 442.226 538.097 409.24C557.667 376.936 576.636 344.239 595.004 311.152C634.454 307.883 673.761 307.776 712.923 310.833C732.039 343.775 750.788 376.766 769.174 409.807C750.703 442.694 732.53 475.785 714.652 509.083ZM893.602 613.696C854.685 614.201 815.775 613.907 776.871 612.818C758.425 581.222 739.677 549.822 720.633 518.621C719.035 515.441 719.026 512.255 720.607 509.066C738.281 476.975 756.856 445.477 776.333 414.565C815.262 412.47 854.172 412.763 893.064 415.443C912.81 447.64 931.957 480.233 950.504 513.22C930.451 546.182 911.484 579.674 893.602 613.696ZM533.889 614.672C494.972 615.176 456.062 614.883 417.157 613.794C397.813 580.012 377.871 546.626 357.331 513.635C377.093 480.936 396.857 448.24 416.619 415.541C455.549 413.446 494.459 413.739 533.351 416.419C552.497 449.012 571.644 481.603 590.79 514.196C570.587 546.979 551.62 580.471 533.889 614.672ZM1613.03 611.745C1574.11 612.249 1535.2 611.956 1496.3 610.867C1476.81 577.983 1457.67 544.993 1438.86 511.895C1456.28 477.918 1475.25 444.825 1495.76 412.614C1534.66 410.915 1573.58 410.809 1612.49 412.297C1631.93 445.093 1651.08 478.082 1669.93 511.269C1650.94 544.825 1631.97 578.317 1613.03 611.745ZM174.176 615.648C134.681 616.531 95.3723 615.843 56.2501 613.58C37.5317 580.613 18.79 547.619 -8.29363e-05 514.604C17.752 481.166 36.7209 448.469 56.9069 416.517C95.804 414.818 134.729 414.713 173.635 416.2C191.273 446.208 209.221 476.018 227.477 505.628C230.322 509.308 231.12 513.287 229.893 517.564C210.064 549.613 191.476 582.308 174.176 615.648ZM1253.32 612.72C1213.83 613.604 1174.52 612.916 1135.39 610.653C1116.6 577.97 1097.85 545.375 1079.14 512.871C1096.67 479.882 1114.85 447.188 1133.67 414.79C1173.36 411.499 1213.07 411.391 1252.78 414.467C1271.92 447.06 1291.07 479.651 1310.22 512.244C1289.98 545.104 1271.01 578.596 1253.32 612.72ZM1074.93 715.915C1035.2 716.818 995.489 716.128 955.811 713.849C936.665 681.256 917.519 648.665 898.373 616.072C917.944 583.768 936.913 551.071 955.28 517.985C994.157 515.094 1033.06 514.589 1072.01 516.474C1091.77 549.509 1110.92 582.898 1129.45 616.639C1110.7 649.486 1092.53 682.577 1074.93 715.915ZM353.12 717.874C314.999 718.376 276.889 718.08 238.771 716.989C221.613 688.771 204.48 660.551 187.323 632.333C182.829 626.579 181.215 620.213 182.506 613.237C201.074 581.736 219.665 550.237 238.233 518.735C277.153 516.64 316.072 516.933 354.964 519.613C373.959 551.908 392.31 584.503 410.02 617.397C392.271 651.64 373.304 685.133 353.12 717.874ZM1432.26 714.945C1393.32 715.846 1354.41 715.154 1315.53 712.873C1296.78 681.872 1278.04 650.871 1259.29 619.87C1257.7 617.486 1257.69 615.097 1259.27 612.704C1278.34 580.208 1297.71 547.909 1317.37 515.808C1355.48 514.111 1393.6 514.008 1431.72 515.498C1451.49 548.534 1470.63 581.922 1489.16 615.664C1471.09 649.368 1452.12 682.461 1432.26 714.945ZM715.215 716.89C675.482 717.794 635.776 717.103 596.099 714.825C576.953 682.232 557.807 649.641 538.661 617.048C558.124 583.755 577.884 550.657 597.946 517.76C636.057 516.063 674.173 515.959 712.292 517.449C731.778 550.333 750.925 583.323 769.734 616.421C751.518 649.937 733.346 683.427 715.215 716.89ZM174.74 823.457C135.793 824.358 96.8892 823.665 58.0052 821.385C39.8607 789.192 21.1211 757.396 1.76378 725.993C1.12809 719.982 2.70928 714.405 6.48306 709.259C23.963 680.861 40.942 652.151 57.4674 623.13C96.3601 619.841 135.285 619.735 174.195 622.814C193.866 655.518 213.013 688.508 231.637 721.786C212.099 755.43 193.133 789.319 174.74 823.457ZM894.166 821.505C855.249 822.009 816.339 821.716 777.434 820.627C761.979 792.608 745.627 765.183 728.376 738.353C723.799 731.682 721.396 724.523 721.17 716.875C738.845 684.784 757.42 653.284 776.897 622.373C815.826 620.278 854.736 620.571 893.628 623.251C913.373 655.448 932.52 688.041 951.067 721.028C930.836 753.876 911.868 787.369 894.166 821.505ZM1613.59 819.553C1574.68 820.058 1535.77 819.764 1496.86 818.676C1477.09 785.64 1457.95 752.25 1439.42 718.509C1457.4 685.22 1476.36 652.524 1496.32 620.422C1535.23 618.723 1574.14 618.617 1613.05 620.105C1632.21 652.736 1651.36 685.327 1670.49 717.882C1651.79 752.057 1632.82 785.948 1613.59 819.553ZM1253.88 820.529C1214.96 821.034 1176.05 820.74 1137.15 819.651C1117.8 785.869 1097.86 752.482 1077.32 719.491C1097.08 686.792 1116.85 654.096 1136.61 621.397C1175.51 619.699 1214.43 619.593 1253.34 621.081C1272.5 653.712 1291.65 686.303 1310.78 718.858C1291.24 752.502 1272.27 786.391 1253.88 820.529ZM534.452 822.481C494.965 823.364 455.657 822.675 416.527 820.412C397.737 787.397 378.987 754.403 360.276 721.436C378.026 687.998 396.995 655.301 417.183 623.349C456.087 621.65 494.998 621.545 533.911 623.032C553.074 655.664 572.221 688.254 591.351 720.809C571.438 754.213 552.471 788.105 534.452 822.481ZM1075.49 923.723C1035.21 924.609 995.107 923.922 955.185 921.661C936.436 889.067 917.685 856.475 898.937 823.881C917.906 791.184 936.875 758.489 955.844 725.792C994.721 722.902 1033.63 722.397 1072.57 724.281C1093.54 756.538 1112.69 789.926 1130.01 824.447C1111.27 857.294 1093.09 890.385 1075.49 923.723ZM715.779 924.699C676.046 925.602 636.34 924.912 596.663 922.634C577.517 890.04 558.37 857.45 539.224 824.856C558.193 792.16 577.162 759.466 596.131 726.769C635.827 723.477 675.528 723.37 715.241 726.446C734.237 758.741 752.587 791.336 770.298 824.23C752.108 857.76 733.934 891.25 715.779 924.699ZM353.684 925.681C315.562 926.184 277.453 925.888 239.334 924.797C219.092 892.009 199.159 859.019 179.511 825.832C199.077 793.528 218.045 760.831 236.418 727.744C276.12 724.452 315.815 724.345 355.528 727.421C374.075 760.407 393.222 793.001 412.967 825.199C393.178 858.76 373.418 892.254 353.684 925.681ZM1435.21 922.748C1394.92 923.633 1354.82 922.946 1314.9 920.685C1296.63 887.782 1277.87 855.19 1258.65 822.905C1277.62 790.208 1296.59 757.513 1315.56 724.817C1355.01 721.547 1394.31 721.44 1433.48 724.497C1453.47 756.397 1472.22 788.992 1489.72 822.278C1471.53 855.809 1453.36 889.298 1435.21 922.748ZM535.01 1027.9C495.277 1028.8 455.57 1028.11 415.893 1025.83C397.225 993.794 378.873 961.598 360.84 929.245C379.186 895.404 398.153 861.912 417.74 828.769C456.67 826.674 495.58 826.967 534.472 829.647C553.336 862.871 572.484 895.863 591.914 928.618C572.634 961.545 553.665 994.638 535.01 1027.9ZM175.297 1028.88C136.373 1029.38 97.4702 1029.09 58.5657 1028C39.3955 995.367 20.2487 962.776 1.12638 930.221C19.5696 896.842 38.5382 863.749 58.0311 830.938C96.9238 827.649 135.849 827.543 174.759 830.622C194.834 863.062 213.981 896.052 232.201 929.594C213.686 963.013 194.718 996.106 175.297 1028.88ZM1254.44 1025.95C1214.7 1026.85 1175 1026.16 1135.32 1023.88C1117.07 991.096 1097.93 958.902 1077.88 927.3C1097.65 894.601 1117.41 861.905 1137.17 829.206C1176.65 827.131 1215.96 827.421 1255.1 830.081C1273.37 862.984 1292.12 895.576 1311.34 927.861C1291.74 960.232 1272.78 992.929 1254.44 1025.95ZM894.723 1026.92C854.99 1027.83 815.284 1027.14 775.607 1024.86C756.938 992.818 738.586 960.622 720.553 928.269C738.303 894.831 757.272 862.134 777.46 830.182C816.938 828.107 856.245 828.397 895.383 831.056C913.848 863.487 932.595 895.682 951.628 927.642C932.347 960.569 913.379 993.662 894.723 1026.92ZM1614.16 1027.36C1574.67 1028.24 1535.36 1027.56 1496.23 1025.29C1477.16 992.458 1458.41 959.464 1439.98 926.318C1457.73 892.879 1476.7 860.182 1496.89 828.229C1535.79 826.531 1574.7 826.425 1613.62 827.913C1633.06 860.708 1652.21 893.699 1671.06 926.885C1652.06 960.442 1633.1 993.934 1614.16 1027.36ZM1073.67 1131.54C1034.19 1132.42 994.878 1131.73 955.749 1129.47C937 1096.87 918.249 1064.28 899.501 1031.69C918.47 998.992 937.439 966.298 956.408 933.601C995.285 930.711 1034.19 930.206 1073.13 932.09C1092.62 964.974 1111.77 997.964 1130.57 1031.06C1112.59 1065.15 1093.62 1098.64 1073.67 1131.54ZM713.961 1132.51C675.021 1133.41 636.11 1132.72 597.226 1130.44C578.679 1097.45 559.533 1064.86 539.788 1032.66C558.757 999.968 577.726 967.273 596.695 934.577C635.572 931.686 674.48 931.182 713.42 933.066C734.106 965.165 753.253 998.155 770.861 1032.04C752.873 1066.13 733.906 1099.62 713.961 1132.51ZM354.247 1133.49C316.126 1133.99 278.017 1133.7 239.898 1132.61C222.741 1104.39 205.608 1076.17 188.451 1047.95C183.957 1042.19 182.344 1035.83 183.635 1028.85C201.319 996.762 219.886 965.263 239.36 934.352C278.28 932.257 317.199 932.55 356.091 935.23C371.971 963.365 388.325 991.186 405.154 1018.7C409.66 1024.45 411.266 1030.82 409.97 1037.79C391.97 1070.15 373.396 1102.05 354.247 1133.49ZM1433.39 1130.56C1394.45 1131.46 1355.54 1130.77 1316.65 1128.49C1297.51 1095.9 1278.36 1063.31 1259.21 1030.71C1278.5 997.303 1298.26 964.208 1318.5 931.425C1356.61 929.728 1394.73 929.625 1432.85 931.114C1453.53 963.214 1472.68 996.203 1490.29 1030.09C1472.54 1064.33 1453.57 1097.82 1433.39 1130.56ZM1255.01 1236.14C1216.09 1236.65 1177.18 1236.36 1138.28 1235.27C1118.93 1201.48 1098.99 1168.1 1078.45 1135.11C1098.81 1102.01 1118.57 1068.51 1137.73 1034.63C1176.66 1032.53 1215.57 1032.82 1254.46 1035.5C1271.81 1066.11 1289.76 1096.31 1308.31 1126.12C1311.15 1129.8 1311.95 1133.78 1310.72 1138.06C1292.1 1170.89 1273.52 1203.58 1255.01 1236.14ZM895.293 1237.12C856.376 1237.63 817.467 1237.33 778.562 1236.24C758.795 1203.21 739.647 1169.82 721.117 1136.08C739.164 1102.44 758.132 1069.34 778.021 1036.8C816.921 1033.51 855.832 1033.4 894.749 1036.48C914.848 1069.25 933.998 1102.64 952.195 1136.64C932.142 1169.61 913.175 1203.1 895.293 1237.12ZM535.58 1238.1C496.092 1238.98 456.784 1238.29 417.655 1236.03C398.586 1203.19 379.837 1170.2 361.404 1137.05C379.45 1103.41 398.418 1070.32 418.307 1037.77C457.207 1034.48 496.118 1034.38 535.035 1037.45C553.9 1070.68 573.048 1103.67 592.478 1136.43C573.006 1170.03 554.04 1203.92 535.58 1238.1ZM175.867 1239.07C136.92 1239.97 98.0166 1239.28 59.1326 1237C39.9364 1203.52 20.7873 1170.13 1.68686 1136.83C20.012 1103.84 38.9817 1071.14 58.5948 1038.75C98.0353 1035.48 137.342 1035.37 176.513 1038.43C195.589 1071.26 214.331 1104.25 232.764 1137.4C213.226 1171.05 194.261 1204.93 175.867 1239.07ZM1614.72 1235.17C1575.8 1235.67 1536.89 1235.38 1497.99 1234.29C1478.22 1201.26 1459.07 1167.87 1440.54 1134.13C1458.52 1100.84 1477.49 1068.14 1497.45 1036.04C1536.36 1034.34 1575.27 1034.23 1614.18 1035.72C1633.66 1068.61 1652.81 1101.59 1671.62 1134.69C1652.66 1168.16 1633.7 1201.65 1614.72 1235.17ZM1074.24 1341.73C1035.3 1342.64 996.393 1341.94 957.509 1339.66C938.361 1306.27 919.213 1272.88 900.064 1239.5C918.432 1206.41 937.401 1173.71 956.971 1141.41C995.848 1138.52 1034.76 1138.01 1073.7 1139.9C1093.46 1172.93 1112.61 1206.32 1131.14 1240.06C1112.47 1274.17 1093.5 1308.06 1074.24 1341.73ZM357.193 1341.29C317.46 1342.19 277.747 1341.5 238.077 1339.23C219.074 1306.93 200.738 1274.33 183.02 1241.44C200.437 1207.46 219.405 1174.37 239.924 1142.16C278.844 1140.06 317.763 1140.36 356.655 1143.04C374.606 1174.04 392.558 1205.04 410.508 1236.05C412.106 1239.23 412.114 1242.41 410.534 1245.6C392.093 1277.24 374.313 1309.14 357.193 1341.29ZM1433.96 1340.76C1395.02 1341.66 1356.11 1340.97 1317.22 1338.69C1298.07 1305.3 1278.93 1271.91 1259.78 1238.52C1279.07 1205.11 1298.83 1172.02 1319.06 1139.23C1357.18 1137.54 1395.29 1137.43 1433.41 1138.92C1451.86 1170.52 1470.6 1201.92 1489.65 1233.12C1490.17 1241.75 1487.81 1249.72 1482.57 1257.02C1465.82 1284.67 1449.62 1312.58 1433.96 1340.76ZM716.907 1340.31C676.623 1341.2 636.521 1340.51 596.599 1338.25C577.85 1305.66 559.1 1273.07 540.352 1240.47C559.815 1207.18 579.575 1174.08 599.637 1141.18C637.748 1139.49 675.864 1139.38 713.984 1140.87C734.999 1173.24 754.147 1206.63 771.428 1241.04C752.958 1273.93 734.785 1307.02 716.907 1340.31ZM176.424 1444.49C137.5 1445 98.5977 1444.7 59.6931 1443.61C39.5718 1411.62 20.425 1379.03 2.25382 1345.84C20.697 1312.46 39.6657 1279.37 59.1585 1246.55C98.0512 1243.27 136.977 1243.16 175.887 1246.24C195.961 1278.68 215.108 1311.67 233.328 1345.21C214.814 1378.63 195.846 1411.72 176.424 1444.49ZM1617.67 1442.97C1577.96 1443.48 1538.25 1443.19 1498.55 1442.1C1477.89 1409.98 1458.74 1376.99 1441.11 1343.13C1458.56 1309.17 1477.53 1276.07 1498.01 1243.85C1537.49 1241.77 1576.8 1242.06 1615.94 1244.72C1634.73 1277.73 1653.48 1310.73 1672.19 1343.7C1653.44 1376.54 1635.27 1409.63 1617.67 1442.97ZM1136.46 1444.28C1120.18 1411.7 1102.22 1379.9 1082.6 1348.88C1081 1345.7 1081 1342.51 1082.58 1339.32C1101.15 1307.82 1119.73 1276.32 1138.3 1244.82C1177.21 1243.12 1216.12 1243.02 1255.03 1244.51C1272.68 1276.1 1290.63 1307.5 1308.89 1338.71C1309.4 1347.34 1307.04 1355.31 1301.8 1362.61C1285.73 1389.47 1270.32 1416.58 1255.57 1443.95L1136.46 1444.28ZM895.857 1444.93C856.94 1445.43 818.03 1445.14 779.126 1444.05C759.64 1411.17 740.493 1378.18 721.684 1345.08C739.132 1311.12 758.1 1278.03 778.588 1245.8C817.492 1244.1 856.403 1243.99 895.316 1245.48C914.763 1278.28 933.911 1311.27 952.758 1344.45C932.706 1377.41 913.739 1410.91 895.857 1444.93ZM536.144 1445.9C496.657 1446.79 457.348 1446.1 418.218 1443.84C399.15 1411 380.4 1378.01 361.967 1344.86C379.946 1311.57 398.916 1278.88 418.875 1246.77C457.779 1245.07 496.691 1244.97 535.603 1246.46C554.049 1278.05 572.796 1309.45 591.841 1340.65C592.469 1346.66 590.895 1352.24 587.121 1357.39C568.869 1386.25 551.876 1415.75 536.144 1445.9ZM1434.52 1548.57C1395.58 1549.47 1356.67 1548.78 1317.79 1546.5C1299.64 1514.3 1280.89 1482.51 1261.55 1451.1C1259.95 1448.72 1259.94 1446.33 1261.53 1443.94C1280.7 1412.43 1299.28 1380.53 1317.25 1348.24C1356.13 1345.35 1395.03 1344.85 1433.97 1346.73C1452.42 1378.33 1471.17 1409.73 1490.21 1440.93C1491.91 1446.83 1491.13 1452.4 1487.88 1457.65C1469.46 1487.63 1451.68 1517.94 1434.52 1548.57ZM1074.81 1549.54C1035.87 1550.44 996.957 1549.75 958.073 1547.47C939.225 1514.28 920.078 1481.29 900.631 1448.5C919.122 1415.1 938.09 1382 957.535 1349.22C996.412 1346.33 1035.32 1345.82 1074.26 1347.71C1094.03 1380.74 1113.18 1414.13 1131.71 1447.87C1113.03 1481.98 1094.06 1515.87 1074.81 1549.54ZM357.757 1549.1C318.024 1550 278.31 1549.31 238.64 1547.03C219.638 1514.74 201.302 1482.14 183.584 1449.25C201.001 1415.27 219.969 1382.18 240.488 1349.97C279.407 1347.87 318.327 1348.17 357.219 1350.85C376.214 1383.14 394.565 1415.74 412.275 1448.63C394.085 1482.16 375.911 1515.65 357.757 1549.1ZM715.095 1550.52C676.973 1551.02 638.857 1550.72 600.745 1549.63C580.905 1517.64 561.362 1485.45 542.119 1453.05C540.869 1448.78 541.652 1444.8 544.469 1441.1C562.748 1410.2 581.324 1379.5 600.201 1348.99C638.312 1347.3 676.428 1347.19 714.547 1348.68C732.195 1378.69 750.143 1408.5 768.39 1438.11C771.675 1443.34 772.484 1448.92 770.818 1454.82C751.615 1486.39 733.041 1518.29 715.095 1550.52ZM1256.13 1651.76C1217.22 1652.26 1178.31 1651.97 1139.4 1650.88C1122.25 1622.66 1105.11 1594.44 1087.96 1566.23C1083.45 1560.47 1081.84 1554.11 1083.14 1547.13C1101.71 1515.63 1120.29 1484.13 1138.87 1452.63C1177.79 1450.53 1216.7 1450.83 1255.6 1453.51C1275.26 1486.21 1294.4 1519.2 1313.04 1552.48C1293.76 1585.41 1274.79 1618.5 1256.13 1651.76ZM536.707 1653.71C497.79 1654.22 458.88 1653.92 419.976 1652.83C400.209 1619.8 381.061 1586.41 362.531 1552.67C381.484 1520.01 400.452 1487.32 419.438 1454.58C458.342 1452.88 497.253 1452.78 536.166 1454.26C555.613 1487.06 574.761 1520.05 593.609 1553.24C574.585 1586.86 555.617 1620.35 536.707 1653.71ZM896.421 1652.74C857.504 1653.24 818.594 1652.95 779.689 1651.86C759.027 1619.74 739.88 1586.75 722.248 1552.89C739.78 1519.9 757.953 1487.2 776.773 1454.81C816.468 1451.51 856.17 1451.41 895.883 1454.48C915.628 1486.68 934.775 1519.27 953.322 1552.26C934.298 1585.88 915.331 1619.38 896.421 1652.74ZM1077.75 1757.34C1038.02 1758.25 998.314 1757.56 958.637 1755.28C939.772 1722.05 920.625 1689.06 901.195 1656.31C920.147 1623.65 939.116 1590.95 958.102 1558.22C997.825 1556.12 1037.53 1556.41 1077.22 1559.09C1096.21 1591.39 1114.56 1623.98 1132.27 1656.87C1114.06 1690.39 1095.88 1723.88 1077.75 1757.34ZM715.659 1758.33C676.719 1759.23 637.808 1758.54 598.924 1756.25C580.076 1723.07 560.929 1690.08 541.482 1657.28C560.152 1624.79 579.122 1592.49 598.393 1560.39C638.088 1557.1 677.79 1556.99 717.503 1560.07C736.498 1592.36 754.849 1624.96 772.559 1657.85C753.602 1691.32 734.635 1724.81 715.659 1758.33ZM896.984 1860.54C858.067 1861.05 819.158 1860.76 780.253 1859.67C759.591 1827.55 740.444 1794.56 722.812 1760.69C741.441 1727.5 760.409 1694.4 779.715 1661.41C818.645 1659.32 857.554 1659.61 896.447 1662.29C916.192 1694.49 935.339 1727.08 953.886 1760.07C934.891 1793.62 915.923 1827.12 896.984 1860.54Z" fill="url(#paint0_linear_352_17)"/>
<defs>
<linearGradient id="paint0_linear_352_17" x1="278.323" y1="442.497" x2="991.762" y2="435.755" gradientUnits="userSpaceOnUse">
<stop stop-color="#C5AC85"/>
<stop offset="1" stop-color="#B99D72"/>
</linearGradient>
</defs>
</svg>
